<svg viewBox="0 0 500 500" xmlns="http://www.w3.org/2000/svg">
<path d="M0,0 L10,0 M0,0 L0,10 M10,0 L20,0 M10,10 L20,10 M20,0 L30,0 M30,0 L40,0 M30,10 L40,10 M40,0 L50,0 M40,10 L50,10 M50,0 L60,0 M50,10 L60,10 M60,0 L70,0 M70,0 L80,0 M70,10 L80,10 M80,0 L90,0 M80,10 L90,10 M90,0 L100,0 M90,10 L100,10 M100,0 L110,0 M110,0 L120,0 M120,0 L130,0 M120,10 L130,10 M130,0 L140,0 M140,0 L150,0 M140,10 L150,10 M150,0 L160,0 M160,0 L170,0 M170,0 L180,0 M180,0 L190,0 M180,10 L190,10 M190,0 L200,0 M200,0 L210,0 M210,0 L220,0 M220,0 L230,0 M220,10 L230,10 M230,0 L240,0 M230,10 L240,10 M240,0 L250,0 M250,0 L260,0 M250,10 L260,10 M260,0 L270,0 M260,10 L270,10 M270,0 L280,0 M270,10 L280,10 M280,0 L290,0 M280,10 L290,10 M290,0 L300,0 M300,0 L310,0 M300,10 L310,10 M310,0 L320,0 M320,0 L330,0 M320,10 L330,10 M330,0 L340,0 M340,0 L350,0 M350,0 L360,0 M360,0 L370,0 M360,10 L370,10 M370,0 L380,0 M370,10 L380,10 M380,0 L390,0 M380,10 L390,10 M390,0 L400,0 M400,0 L410,0 M410,0 L420,0 M410,10 L420,10 M420,0 L430,0 M430,0 L440,0 M430,10 L440,10 M440,0 L450,0 M440,10 L450,10 M450,0 L460,0 M460,0 L470,0 M460,10 L470,10 M470,0 L480,0 M480,0 L490,0 M480,10 L490,10 M490,0 L500,0 M500,0 L500,10 M0,10 L0,20 M10,10 L10,20 M10,20 L20,20 M40,20 L50,20 M60,10 L60,20 M90,10 L90,20 M90,20 L100,20 M110,10 L110,20 M100,20 L110,20 M130,10 L130,20 M140,10 L140,20 M130,20 L140,20 M140,20 L150,20 M160,10 L160,20 M150,20 L160,20 M170,10 L170,20 M160,20 L170,20 M170,20 L180,20 M190,10 L190,20 M200,10 L200,20 M190,20 L200,20 M210,10 L210,20 M240,10 L240,20 M230,20 L240,20 M240,20 L250,20 M250,20 L260,20 M280,10 L280,20 M280,20 L290,20 M310,10 L310,20 M300,20 L310,20 M320,10 L320,20 M340,10 L340,20 M330,20 L340,20 M350,10 L350,20 M340,20 L350,20 M360,10 L360,20 M350,20 L360,20 M360,20 L370,20 M370,20 L380,20 M400,10 L400,20 M420,10 L420,20 M430,10 L430,20 M460,10 L460,20 M450,20 L460,20 M490,10 L490,20 M480,20 L490,20 M500,10 L500,20 M0,20 L0,30 M10,20 L10,30 M30,20 L30,30 M30,30 L40,30 M50,20 L50,30 M60,20 L60,30 M70,20 L70,30 M80,20 L80,30 M80,30 L90,30 M110,20 L110,30 M100,30 L110,30 M120,20 L120,30 M110,30 L120,30 M120,30 L130,30 M150,30 L160,30 M180,20 L180,30 M180,30 L190,30 M200,20 L200,30 M190,30 L200,30 M210,20 L210,30 M220,20 L220,30 M210,30 L220,30 M230,20 L230,30 M230,30 L240,30 M240,30 L250,30 M250,30 L260,30 M270,20 L270,30 M270,30 L280,30 M290,20 L290,30 M280,30 L290,30 M300,20 L300,30 M290,30 L300,30 M300,30 L310,30 M320,20 L320,30 M320,30 L330,30 M340,30 L350,30 M360,20 L360,30 M360,30 L370,30 M390,20 L390,30 M400,20 L400,30 M390,30 L400,30 M410,20 L410,30 M420,20 L420,30 M410,30 L420,30 M430,20 L430,30 M440,20 L440,30 M450,20 L450,30 M440,30 L450,30 M470,20 L470,30 M480,20 L480,30 M500,20 L500,30 M0,30 L0,40 M10,30 L10,40 M20,30 L20,40 M10,40 L20,40 M20,40 L30,40 M40,30 L40,40 M30,40 L40,40 M50,30 L50,40 M40,40 L50,40 M60,30 L60,40 M70,30 L70,40 M90,30 L90,40 M80,40 L90,40 M90,40 L100,40 M110,40 L120,40 M130,30 L130,40 M140,30 L140,40 M130,40 L140,40 M160,30 L160,40 M170,30 L170,40 M160,40 L170,40 M180,30 L180,40 M180,40 L190,40 M220,30 L220,40 M230,40 L240,40 M240,40 L250,40 M260,30 L260,40 M270,30 L270,40 M260,40 L270,40 M320,30 L320,40 M320,40 L330,40 M330,40 L340,40 M350,30 L350,40 M340,40 L350,40 M360,30 L360,40 M350,40 L360,40 M360,40 L370,40 M380,30 L380,40 M370,40 L380,40 M400,30 L400,40 M390,40 L400,40 M400,40 L410,40 M420,30 L420,40 M430,30 L430,40 M420,40 L430,40 M450,30 L450,40 M460,30 L460,40 M470,30 L470,40 M460,40 L470,40 M480,30 L480,40 M490,30 L490,40 M500,30 L500,40 M490,40 L500,40 M0,40 L0,50 M0,50 L10,50 M10,50 L20,50 M20,50 L30,50 M50,40 L50,50 M40,50 L50,50 M60,40 L60,50 M50,50 L60,50 M70,40 L70,50 M60,50 L70,50 M80,40 L80,50 M70,50 L80,50 M80,50 L90,50 M90,50 L100,50 M120,40 L120,50 M140,40 L140,50 M150,40 L150,50 M140,50 L150,50 M160,40 L160,50 M180,40 L180,50 M170,50 L180,50 M180,50 L190,50 M200,40 L200,50 M210,40 L210,50 M200,50 L210,50 M220,40 L220,50 M230,40 L230,50 M270,40 L270,50 M260,50 L270,50 M280,40 L280,50 M270,50 L280,50 M290,40 L290,50 M280,50 L290,50 M300,40 L300,50 M310,40 L310,50 M300,50 L310,50 M310,50 L320,50 M320,50 L330,50 M330,50 L340,50 M350,40 L350,50 M340,50 L350,50 M350,50 L360,50 M360,50 L370,50 M370,50 L380,50 M380,50 L390,50 M400,40 L400,50 M390,50 L400,50 M400,50 L410,50 M420,40 L420,50 M410,50 L420,50 M420,50 L430,50 M440,40 L440,50 M450,40 L450,50 M450,50 L460,50 M470,40 L470,50 M460,50 L470,50 M480,40 L480,50 M470,50 L480,50 M480,50 L490,50 M500,40 L500,50 M0,50 L0,60 M20,60 L30,60 M80,50 L80,60 M80,60 L90,60 M110,50 L110,60 M120,50 L120,60 M110,60 L120,60 M130,50 L130,60 M120,60 L130,60 M130,60 L140,60 M150,50 L150,60 M160,50 L160,60 M150,60 L160,60 M160,60 L170,60 M190,50 L190,60 M180,60 L190,60 M200,50 L200,60 M190,60 L200,60 M220,50 L220,60 M210,60 L220,60 M230,50 L230,60 M240,50 L240,60 M230,60 L240,60 M250,50 L250,60 M260,50 L260,60 M250,60 L260,60 M280,60 L290,60 M300,50 L300,60 M290,60 L300,60 M300,60 L310,60 M330,60 L340,60 M340,60 L350,60 M360,60 L370,60 M370,60 L380,60 M400,60 L410,60 M410,60 L420,60 M440,50 L440,60 M430,60 L440,60 M450,50 L450,60 M450,60 L460,60 M470,60 L480,60 M500,50 L500,60 M0,60 L0,70 M10,60 L10,70 M20,60 L20,70 M40,60 L40,70 M50,60 L50,70 M40,70 L50,70 M60,60 L60,70 M70,60 L70,70 M60,70 L70,70 M80,60 L80,70 M100,60 L100,70 M100,70 L110,70 M110,70 L120,70 M130,60 L130,70 M160,60 L160,70 M150,70 L160,70 M160,70 L170,70 M200,60 L200,70 M190,70 L200,70 M210,60 L210,70 M210,70 L220,70 M220,70 L230,70 M240,60 L240,70 M230,70 L240,70 M250,60 L250,70 M240,70 L250,70 M250,70 L260,70 M270,60 L270,70 M280,60 L280,70 M270,70 L280,70 M280,70 L290,70 M300,70 L310,70 M320,60 L320,70 M310,70 L320,70 M330,60 L330,70 M330,70 L340,70 M340,70 L350,70 M360,70 L370,70 M380,60 L380,70 M390,60 L390,70 M380,70 L390,70 M400,60 L400,70 M400,70 L410,70 M420,70 L430,70 M440,60 L440,70 M450,60 L450,70 M440,70 L450,70 M470,60 L470,70 M460,70 L470,70 M470,70 L480,70 M490,60 L490,70 M500,60 L500,70 M490,70 L500,70 M0,70 L0,80 M10,70 L10,80 M0,80 L10,80 M20,70 L20,80 M30,70 L30,80 M20,80 L30,80 M30,80 L40,80 M50,70 L50,80 M40,80 L50,80 M60,70 L60,80 M50,80 L60,80 M80,70 L80,80 M70,80 L80,80 M90,70 L90,80 M80,80 L90,80 M100,80 L110,80 M120,70 L120,80 M130,70 L130,80 M120,80 L130,80 M140,70 L140,80 M150,70 L150,80 M140,80 L150,80 M150,80 L160,80 M160,80 L170,80 M180,70 L180,80 M170,80 L180,80 M190,70 L190,80 M180,80 L190,80 M210,80 L220,80 M230,70 L230,80 M240,80 L250,80 M270,70 L270,80 M260,80 L270,80 M270,80 L280,80 M300,80 L310,80 M320,70 L320,80 M320,80 L330,80 M350,70 L350,80 M350,80 L360,80 M370,70 L370,80 M380,70 L380,80 M400,70 L400,80 M420,70 L420,80 M420,80 L430,80 M440,70 L440,80 M430,80 L440,80 M460,70 L460,80 M450,80 L460,80 M480,80 L490,80 M500,70 L500,80 M0,80 L0,90 M10,90 L20,90 M40,80 L40,90 M40,90 L50,90 M70,80 L70,90 M70,90 L80,90 M80,90 L90,90 M100,80 L100,90 M90,90 L100,90 M100,90 L110,90 M120,80 L120,90 M110,90 L120,90 M120,90 L130,90 M160,80 L160,90 M150,90 L160,90 M170,90 L180,90 M200,80 L200,90 M210,80 L210,90 M210,90 L220,90 M230,80 L230,90 M220,90 L230,90 M240,80 L240,90 M280,80 L280,90 M270,90 L280,90 M290,80 L290,90 M310,80 L310,90 M300,90 L310,90 M320,80 L320,90 M310,90 L320,90 M320,90 L330,90 M340,80 L340,90 M350,80 L350,90 M340,90 L350,90 M350,90 L360,90 M370,80 L370,90 M380,80 L380,90 M390,80 L390,90 M380,90 L390,90 M400,80 L400,90 M410,80 L410,90 M410,90 L420,90 M440,80 L440,90 M430,90 L440,90 M450,80 L450,90 M440,90 L450,90 M450,90 L460,90 M470,80 L470,90 M480,80 L480,90 M500,80 L500,90 M0,90 L0,100 M0,100 L10,100 M20,90 L20,100 M30,90 L30,100 M40,90 L40,100 M30,100 L40,100 M60,90 L60,100 M80,100 L90,100 M100,90 L100,100 M140,90 L140,100 M130,100 L140,100 M160,90 L160,100 M150,100 L160,100 M160,100 L170,100 M180,90 L180,100 M170,100 L180,100 M190,90 L190,100 M200,90 L200,100 M190,100 L200,100 M210,90 L210,100 M220,100 L230,100 M240,90 L240,100 M250,90 L250,100 M260,90 L260,100 M260,100 L270,100 M280,90 L280,100 M290,90 L290,100 M280,100 L290,100 M290,100 L300,100 M310,90 L310,100 M300,100 L310,100 M340,90 L340,100 M330,100 L340,100 M340,100 L350,100 M350,100 L360,100 M370,90 L370,100 M360,100 L370,100 M390,90 L390,100 M400,90 L400,100 M410,90 L410,100 M400,100 L410,100 M410,100 L420,100 M430,100 L440,100 M460,90 L460,100 M450,100 L460,100 M470,90 L470,100 M480,90 L480,100 M470,100 L480,100 M490,90 L490,100 M500,90 L500,100 M0,100 L0,110 M0,110 L10,110 M20,100 L20,110 M10,110 L20,110 M40,100 L40,110 M50,100 L50,110 M60,100 L60,110 M70,100 L70,110 M60,110 L70,110 M70,110 L80,110 M90,100 L90,110 M80,110 L90,110 M100,100 L100,110 M110,100 L110,110 M120,100 L120,110 M110,110 L120,110 M140,100 L140,110 M140,110 L150,110 M170,100 L170,110 M170,110 L180,110 M200,100 L200,110 M210,100 L210,110 M200,110 L210,110 M210,110 L220,110 M230,100 L230,110 M240,100 L240,110 M230,110 L240,110 M250,100 L250,110 M250,110 L260,110 M270,100 L270,110 M280,100 L280,110 M280,110 L290,110 M290,110 L300,110 M320,100 L320,110 M340,100 L340,110 M350,110 L360,110 M360,110 L370,110 M380,100 L380,110 M370,110 L380,110 M390,100 L390,110 M380,110 L390,110 M410,100 L410,110 M400,110 L410,110 M410,110 L420,110 M440,100 L440,110 M430,110 L440,110 M460,100 L460,110 M450,110 L460,110 M470,100 L470,110 M460,110 L470,110 M470,110 L480,110 M490,100 L490,110 M500,100 L500,110 M490,110 L500,110 M0,110 L0,120 M30,110 L30,120 M20,120 L30,120 M40,110 L40,120 M30,120 L40,120 M50,110 L50,120 M50,120 L60,120 M80,110 L80,120 M100,110 L100,120 M120,110 L120,120 M110,120 L120,120 M130,110 L130,120 M120,120 L130,120 M150,110 L150,120 M140,120 L150,120 M160,110 L160,120 M150,120 L160,120 M170,110 L170,120 M190,110 L190,120 M180,120 L190,120 M200,110 L200,120 M230,110 L230,120 M220,120 L230,120 M230,120 L240,120 M250,110 L250,120 M250,120 L260,120 M270,110 L270,120 M260,120 L270,120 M280,110 L280,120 M310,110 L310,120 M320,110 L320,120 M330,110 L330,120 M320,120 L330,120 M340,110 L340,120 M340,120 L350,120 M360,110 L360,120 M360,120 L370,120 M370,120 L380,120 M400,110 L400,120 M410,120 L420,120 M430,110 L430,120 M420,120 L430,120 M440,120 L450,120 M480,110 L480,120 M470,120 L480,120 M500,110 L500,120 M490,120 L500,120 M0,120 L0,130 M10,120 L10,130 M0,130 L10,130 M20,130 L30,130 M40,120 L40,130 M30,130 L40,130 M50,120 L50,130 M40,130 L50,130 M50,130 L60,130 M70,120 L70,130 M60,130 L70,130 M80,120 L80,130 M70,130 L80,130 M90,120 L90,130 M80,130 L90,130 M100,120 L100,130 M110,120 L110,130 M140,120 L140,130 M130,130 L140,130 M140,130 L150,130 M170,120 L170,130 M170,130 L180,130 M190,120 L190,130 M200,120 L200,130 M190,130 L200,130 M210,120 L210,130 M200,130 L210,130 M210,130 L220,130 M230,120 L230,130 M240,130 L250,130 M270,120 L270,130 M280,120 L280,130 M270,130 L280,130 M290,120 L290,130 M300,120 L300,130 M290,130 L300,130 M310,120 L310,130 M300,130 L310,130 M310,130 L320,130 M330,120 L330,130 M320,130 L330,130 M350,120 L350,130 M370,120 L370,130 M360,130 L370,130 M390,120 L390,130 M380,130 L390,130 M400,120 L400,130 M390,130 L400,130 M400,130 L410,130 M410,130 L420,130 M430,120 L430,130 M440,120 L440,130 M430,130 L440,130 M440,130 L450,130 M460,120 L460,130 M480,120 L480,130 M470,130 L480,130 M480,130 L490,130 M500,120 L500,130 M0,130 L0,140 M10,140 L20,140 M20,140 L30,140 M30,140 L40,140 M40,140 L50,140 M50,140 L60,140 M70,140 L80,140 M90,130 L90,140 M100,130 L100,140 M110,130 L110,140 M100,140 L110,140 M120,130 L120,140 M110,140 L120,140 M120,140 L130,140 M130,140 L140,140 M150,130 L150,140 M160,130 L160,140 M170,130 L170,140 M180,140 L190,140 M220,130 L220,140 M230,130 L230,140 M240,130 L240,140 M230,140 L240,140 M240,140 L250,140 M260,130 L260,140 M270,130 L270,140 M290,140 L300,140 M300,140 L310,140 M310,140 L320,140 M330,130 L330,140 M320,140 L330,140 M340,130 L340,140 M350,130 L350,140 M340,140 L350,140 M360,130 L360,140 M350,140 L360,140 M360,140 L370,140 M380,130 L380,140 M370,140 L380,140 M380,140 L390,140 M420,140 L430,140 M430,140 L440,140 M450,130 L450,140 M440,140 L450,140 M460,130 L460,140 M450,140 L460,140 M480,130 L480,140 M470,140 L480,140 M480,140 L490,140 M500,130 L500,140 M490,140 L500,140 M0,140 L0,150 M0,150 L10,150 M20,150 L30,150 M40,140 L40,150 M30,150 L40,150 M50,150 L60,150 M70,140 L70,150 M60,150 L70,150 M90,140 L90,150 M90,150 L100,150 M110,140 L110,150 M120,150 L130,150 M150,140 L150,150 M160,140 L160,150 M170,140 L170,150 M160,150 L170,150 M170,150 L180,150 M190,140 L190,150 M200,140 L200,150 M210,140 L210,150 M220,140 L220,150 M210,150 L220,150 M230,140 L230,150 M230,150 L240,150 M260,140 L260,150 M250,150 L260,150 M270,140 L270,150 M260,150 L270,150 M280,140 L280,150 M270,150 L280,150 M290,150 L300,150 M320,140 L320,150 M310,150 L320,150 M350,150 L360,150 M390,140 L390,150 M380,150 L390,150 M400,140 L400,150 M390,150 L400,150 M410,140 L410,150 M420,140 L420,150 M440,150 L450,150 M450,150 L460,150 M460,150 L470,150 M480,150 L490,150 M500,140 L500,150 M0,150 L0,160 M20,150 L20,160 M50,150 L50,160 M40,160 L50,160 M50,160 L60,160 M80,150 L80,160 M80,160 L90,160 M100,150 L100,160 M90,160 L100,160 M110,150 L110,160 M100,160 L110,160 M120,150 L120,160 M110,160 L120,160 M140,150 L140,160 M130,160 L140,160 M150,150 L150,160 M140,160 L150,160 M170,150 L170,160 M190,150 L190,160 M200,150 L200,160 M200,160 L210,160 M220,150 L220,160 M210,160 L220,160 M240,150 L240,160 M250,150 L250,160 M240,160 L250,160 M250,160 L260,160 M300,150 L300,160 M290,160 L300,160 M310,150 L310,160 M300,160 L310,160 M330,150 L330,160 M340,150 L340,160 M360,150 L360,160 M350,160 L360,160 M370,150 L370,160 M360,160 L370,160 M380,150 L380,160 M370,160 L380,160 M380,160 L390,160 M390,160 L400,160 M410,150 L410,160 M420,150 L420,160 M410,160 L420,160 M430,150 L430,160 M420,160 L430,160 M430,160 L440,160 M440,160 L450,160 M460,150 L460,160 M460,160 L470,160 M480,150 L480,160 M470,160 L480,160 M480,160 L490,160 M500,150 L500,160 M0,160 L0,170 M10,160 L10,170 M20,160 L20,170 M10,170 L20,170 M30,160 L30,170 M30,170 L40,170 M50,160 L50,170 M40,170 L50,170 M70,160 L70,170 M60,170 L70,170 M80,170 L90,170 M120,160 L120,170 M110,170 L120,170 M130,160 L130,170 M130,170 L140,170 M160,160 L160,170 M170,160 L170,170 M180,160 L180,170 M170,170 L180,170 M190,160 L190,170 M210,160 L210,170 M230,160 L230,170 M250,160 L250,170 M240,170 L250,170 M270,160 L270,170 M260,170 L270,170 M280,160 L280,170 M280,170 L290,170 M310,160 L310,170 M300,170 L310,170 M320,160 L320,170 M310,170 L320,170 M330,160 L330,170 M340,160 L340,170 M330,170 L340,170 M340,170 L350,170 M360,160 L360,170 M380,170 L390,170 M400,170 L410,170 M450,160 L450,170 M460,160 L460,170 M450,170 L460,170 M460,170 L470,170 M480,170 L490,170 M500,160 L500,170 M0,170 L0,180 M10,170 L10,180 M10,180 L20,180 M40,170 L40,180 M30,180 L40,180 M40,180 L50,180 M50,180 L60,180 M70,170 L70,180 M60,180 L70,180 M80,170 L80,180 M80,180 L90,180 M100,170 L100,180 M110,170 L110,180 M100,180 L110,180 M120,180 L130,180 M140,170 L140,180 M130,180 L140,180 M150,170 L150,180 M160,170 L160,180 M150,180 L160,180 M180,170 L180,180 M190,170 L190,180 M200,170 L200,180 M190,180 L200,180 M210,170 L210,180 M200,180 L210,180 M220,170 L220,180 M230,170 L230,180 M240,170 L240,180 M230,180 L240,180 M240,180 L250,180 M260,170 L260,180 M260,180 L270,180 M270,180 L280,180 M290,170 L290,180 M300,170 L300,180 M340,170 L340,180 M330,180 L340,180 M360,170 L360,180 M350,180 L360,180 M370,170 L370,180 M360,180 L370,180 M390,170 L390,180 M400,170 L400,180 M390,180 L400,180 M420,170 L420,180 M410,180 L420,180 M430,170 L430,180 M440,170 L440,180 M440,180 L450,180 M450,180 L460,180 M470,170 L470,180 M470,180 L480,180 M490,170 L490,180 M500,170 L500,180 M490,180 L500,180 M0,180 L0,190 M20,180 L20,190 M10,190 L20,190 M20,190 L30,190 M30,190 L40,190 M40,190 L50,190 M60,180 L60,190 M70,190 L80,190 M90,180 L90,190 M80,190 L90,190 M100,180 L100,190 M90,190 L100,190 M140,180 L140,190 M130,190 L140,190 M140,190 L150,190 M160,180 L160,190 M150,190 L160,190 M170,180 L170,190 M180,180 L180,190 M170,190 L180,190 M190,190 L200,190 M210,180 L210,190 M220,180 L220,190 M230,180 L230,190 M230,190 L240,190 M260,180 L260,190 M250,190 L260,190 M260,190 L270,190 M270,190 L280,190 M290,180 L290,190 M300,180 L300,190 M310,180 L310,190 M320,180 L320,190 M310,190 L320,190 M320,190 L330,190 M340,180 L340,190 M330,190 L340,190 M350,190 L360,190 M370,180 L370,190 M360,190 L370,190 M380,180 L380,190 M390,180 L390,190 M380,190 L390,190 M410,180 L410,190 M400,190 L410,190 M410,190 L420,190 M430,180 L430,190 M450,180 L450,190 M440,190 L450,190 M450,190 L460,190 M460,190 L470,190 M480,180 L480,190 M470,190 L480,190 M500,180 L500,190 M490,190 L500,190 M0,190 L0,200 M20,190 L20,200 M30,200 L40,200 M40,200 L50,200 M60,190 L60,200 M50,200 L60,200 M60,200 L70,200 M90,190 L90,200 M80,200 L90,200 M110,190 L110,200 M100,200 L110,200 M120,190 L120,200 M130,190 L130,200 M120,200 L130,200 M130,200 L140,200 M140,200 L150,200 M150,200 L160,200 M170,190 L170,200 M160,200 L170,200 M190,190 L190,200 M180,200 L190,200 M210,190 L210,200 M200,200 L210,200 M220,190 L220,200 M240,190 L240,200 M230,200 L240,200 M250,190 L250,200 M250,200 L260,200 M260,200 L270,200 M270,200 L280,200 M290,190 L290,200 M300,190 L300,200 M290,200 L300,200 M310,200 L320,200 M330,190 L330,200 M320,200 L330,200 M340,200 L350,200 M360,190 L360,200 M390,190 L390,200 M380,200 L390,200 M390,200 L400,200 M420,190 L420,200 M430,190 L430,200 M420,200 L430,200 M440,190 L440,200 M430,200 L440,200 M460,200 L470,200 M470,200 L480,200 M480,200 L490,200 M500,190 L500,200 M0,200 L0,210 M10,200 L10,210 M20,200 L20,210 M10,210 L20,210 M20,210 L30,210 M40,210 L50,210 M60,200 L60,210 M50,210 L60,210 M80,200 L80,210 M70,210 L80,210 M80,210 L90,210 M110,200 L110,210 M100,210 L110,210 M140,210 L150,210 M170,200 L170,210 M190,200 L190,210 M180,210 L190,210 M210,200 L210,210 M220,200 L220,210 M220,210 L230,210 M240,200 L240,210 M260,200 L260,210 M250,210 L260,210 M280,210 L290,210 M300,200 L300,210 M290,210 L300,210 M300,210 L310,210 M320,200 L320,210 M310,210 L320,210 M340,200 L340,210 M330,210 L340,210 M360,200 L360,210 M350,210 L360,210 M370,200 L370,210 M360,210 L370,210 M370,210 L380,210 M390,200 L390,210 M390,210 L400,210 M410,200 L410,210 M400,210 L410,210 M420,200 L420,210 M410,210 L420,210 M420,210 L430,210 M430,210 L440,210 M450,200 L450,210 M450,210 L460,210 M460,210 L470,210 M480,200 L480,210 M470,210 L480,210 M500,200 L500,210 M0,210 L0,220 M10,210 L10,220 M10,220 L20,220 M50,210 L50,220 M70,210 L70,220 M80,220 L90,220 M110,210 L110,220 M100,220 L110,220 M120,210 L120,220 M110,220 L120,220 M130,210 L130,220 M120,220 L130,220 M150,210 L150,220 M160,210 L160,220 M170,210 L170,220 M160,220 L170,220 M170,220 L180,220 M190,210 L190,220 M200,210 L200,220 M210,210 L210,220 M220,210 L220,220 M240,210 L240,220 M230,220 L240,220 M240,220 L250,220 M260,210 L260,220 M250,220 L260,220 M270,210 L270,220 M260,220 L270,220 M270,220 L280,220 M290,210 L290,220 M340,210 L340,220 M360,210 L360,220 M370,220 L380,220 M390,210 L390,220 M380,220 L390,220 M400,220 L410,220 M420,220 L430,220 M470,210 L470,220 M490,210 L490,220 M480,220 L490,220 M500,210 L500,220 M490,220 L500,220 M0,220 L0,230 M20,220 L20,230 M30,220 L30,230 M20,230 L30,230 M40,220 L40,230 M30,230 L40,230 M50,220 L50,230 M40,230 L50,230 M60,220 L60,230 M70,220 L70,230 M90,220 L90,230 M80,230 L90,230 M100,220 L100,230 M100,230 L110,230 M110,230 L120,230 M120,230 L130,230 M140,220 L140,230 M150,220 L150,230 M140,230 L150,230 M150,230 L160,230 M170,220 L170,230 M190,220 L190,230 M200,220 L200,230 M210,220 L210,230 M220,220 L220,230 M210,230 L220,230 M230,230 L240,230 M250,230 L260,230 M280,220 L280,230 M270,230 L280,230 M290,220 L290,230 M300,220 L300,230 M290,230 L300,230 M310,220 L310,230 M300,230 L310,230 M320,220 L320,230 M330,220 L330,230 M320,230 L330,230 M340,220 L340,230 M350,220 L350,230 M340,230 L350,230 M360,220 L360,230 M350,230 L360,230 M360,230 L370,230 M380,220 L380,230 M380,230 L390,230 M400,220 L400,230 M390,230 L400,230 M410,230 L420,230 M430,220 L430,230 M420,230 L430,230 M440,220 L440,230 M450,220 L450,230 M440,230 L450,230 M460,220 L460,230 M450,230 L460,230 M470,220 L470,230 M480,230 L490,230 M500,220 L500,230 M0,230 L0,240 M10,230 L10,240 M10,240 L20,240 M20,240 L30,240 M40,230 L40,240 M30,240 L40,240 M60,230 L60,240 M70,230 L70,240 M80,230 L80,240 M80,240 L90,240 M100,240 L110,240 M130,230 L130,240 M120,240 L130,240 M150,230 L150,240 M140,240 L150,240 M170,230 L170,240 M180,230 L180,240 M190,230 L190,240 M180,240 L190,240 M200,230 L200,240 M220,230 L220,240 M210,240 L220,240 M220,240 L230,240 M240,230 L240,240 M260,230 L260,240 M250,240 L260,240 M270,230 L270,240 M260,240 L270,240 M280,240 L290,240 M300,230 L300,240 M310,240 L320,240 M330,230 L330,240 M320,240 L330,240 M330,240 L340,240 M360,230 L360,240 M350,240 L360,240 M380,230 L380,240 M390,240 L400,240 M420,230 L420,240 M440,230 L440,240 M430,240 L440,240 M450,240 L460,240 M470,230 L470,240 M460,240 L470,240 M480,230 L480,240 M480,240 L490,240 M500,230 L500,240 M0,240 L0,250 M10,240 L10,250 M10,250 L20,250 M30,250 L40,250 M50,240 L50,250 M60,240 L60,250 M70,240 L70,250 M60,250 L70,250 M80,240 L80,250 M110,240 L110,250 M100,250 L110,250 M110,250 L120,250 M130,240 L130,250 M120,250 L130,250 M130,250 L140,250 M150,240 L150,250 M160,240 L160,250 M150,250 L160,250 M170,240 L170,250 M180,240 L180,250 M170,250 L180,250 M200,240 L200,250 M190,250 L200,250 M200,250 L210,250 M210,250 L220,250 M230,240 L230,250 M220,250 L230,250 M240,240 L240,250 M230,250 L240,250 M240,250 L250,250 M270,240 L270,250 M260,250 L270,250 M280,240 L280,250 M300,240 L300,250 M290,250 L300,250 M310,250 L320,250 M320,250 L330,250 M340,240 L340,250 M330,250 L340,250 M350,240 L350,250 M340,250 L350,250 M370,240 L370,250 M360,250 L370,250 M380,240 L380,250 M400,240 L400,250 M410,240 L410,250 M400,250 L410,250 M420,240 L420,250 M410,250 L420,250 M430,240 L430,250 M420,250 L430,250 M460,240 L460,250 M450,250 L460,250 M460,250 L470,250 M490,240 L490,250 M480,250 L490,250 M500,240 L500,250 M490,250 L500,250 M0,250 L0,260 M0,260 L10,260 M20,250 L20,260 M10,260 L20,260 M30,250 L30,260 M20,260 L30,260 M30,260 L40,260 M50,250 L50,260 M40,260 L50,260 M60,250 L60,260 M80,250 L80,260 M90,250 L90,260 M80,260 L90,260 M100,260 L110,260 M120,250 L120,260 M150,250 L150,260 M140,260 L150,260 M180,250 L180,260 M190,260 L200,260 M210,250 L210,260 M210,260 L220,260 M240,260 L250,260 M260,250 L260,260 M250,260 L260,260 M280,250 L280,260 M300,250 L300,260 M290,260 L300,260 M310,250 L310,260 M300,260 L310,260 M330,260 L340,260 M340,260 L350,260 M370,250 L370,260 M380,250 L380,260 M370,260 L380,260 M390,250 L390,260 M400,250 L400,260 M400,260 L410,260 M420,260 L430,260 M440,250 L440,260 M450,250 L450,260 M460,260 L470,260 M500,250 L500,260 M0,260 L0,270 M60,260 L60,270 M50,270 L60,270 M70,260 L70,270 M60,270 L70,270 M80,260 L80,270 M80,270 L90,270 M90,270 L100,270 M110,260 L110,270 M100,270 L110,270 M120,260 L120,270 M110,270 L120,270 M130,260 L130,270 M140,260 L140,270 M130,270 L140,270 M160,260 L160,270 M150,270 L160,270 M170,260 L170,270 M180,260 L180,270 M170,270 L180,270 M180,270 L190,270 M200,260 L200,270 M210,260 L210,270 M210,270 L220,270 M230,260 L230,270 M220,270 L230,270 M260,260 L260,270 M270,260 L270,270 M280,260 L280,270 M270,270 L280,270 M280,270 L290,270 M300,260 L300,270 M290,270 L300,270 M320,260 L320,270 M320,270 L330,270 M340,260 L340,270 M340,270 L350,270 M360,260 L360,270 M350,270 L360,270 M360,270 L370,270 M380,260 L380,270 M390,260 L390,270 M380,270 L390,270 M400,260 L400,270 M430,260 L430,270 M440,260 L440,270 M450,260 L450,270 M440,270 L450,270 M460,260 L460,270 M450,270 L460,270 M480,260 L480,270 M490,260 L490,270 M500,260 L500,270 M0,270 L0,280 M10,270 L10,280 M20,270 L20,280 M30,270 L30,280 M20,280 L30,280 M40,270 L40,280 M30,280 L40,280 M50,270 L50,280 M90,270 L90,280 M130,270 L130,280 M130,280 L140,280 M150,270 L150,280 M150,280 L160,280 M170,270 L170,280 M160,280 L170,280 M170,280 L180,280 M200,270 L200,280 M220,270 L220,280 M240,270 L240,280 M230,280 L240,280 M250,270 L250,280 M260,270 L260,280 M260,280 L270,280 M280,270 L280,280 M270,280 L280,280 M310,270 L310,280 M320,270 L320,280 M340,280 L350,280 M360,270 L360,280 M380,270 L380,280 M370,280 L380,280 M380,280 L390,280 M400,270 L400,280 M410,270 L410,280 M400,280 L410,280 M420,270 L420,280 M410,280 L420,280 M430,270 L430,280 M420,280 L430,280 M450,270 L450,280 M440,280 L450,280 M470,270 L470,280 M480,270 L480,280 M490,270 L490,280 M500,270 L500,280 M0,280 L0,290 M10,280 L10,290 M0,290 L10,290 M30,280 L30,290 M20,290 L30,290 M30,290 L40,290 M50,280 L50,290 M60,280 L60,290 M50,290 L60,290 M70,280 L70,290 M80,280 L80,290 M70,290 L80,290 M90,280 L90,290 M80,290 L90,290 M100,280 L100,290 M110,280 L110,290 M120,280 L120,290 M110,290 L120,290 M140,280 L140,290 M130,290 L140,290 M150,290 L160,290 M160,290 L170,290 M180,280 L180,290 M170,290 L180,290 M190,280 L190,290 M200,280 L200,290 M190,290 L200,290 M210,280 L210,290 M200,290 L210,290 M220,280 L220,290 M210,290 L220,290 M230,280 L230,290 M250,280 L250,290 M240,290 L250,290 M260,280 L260,290 M250,290 L260,290 M270,290 L280,290 M290,280 L290,290 M300,280 L300,290 M310,280 L310,290 M320,280 L320,290 M330,280 L330,290 M320,290 L330,290 M340,280 L340,290 M340,290 L350,290 M360,280 L360,290 M350,290 L360,290 M390,280 L390,290 M380,290 L390,290 M390,290 L400,290 M420,280 L420,290 M410,290 L420,290 M440,280 L440,290 M430,290 L440,290 M440,290 L450,290 M460,280 L460,290 M450,290 L460,290 M470,280 L470,290 M480,280 L480,290 M470,290 L480,290 M490,280 L490,290 M480,290 L490,290 M500,280 L500,290 M0,290 L0,300 M0,300 L10,300 M20,300 L30,300 M40,290 L40,300 M50,290 L50,300 M50,300 L60,300 M70,290 L70,300 M70,300 L80,300 M100,290 L100,300 M100,300 L110,300 M120,290 L120,300 M110,300 L120,300 M140,290 L140,300 M130,300 L140,300 M140,300 L150,300 M160,290 L160,300 M150,300 L160,300 M180,300 L190,300 M200,290 L200,300 M210,300 L220,300 M230,290 L230,300 M220,300 L230,300 M260,290 L260,300 M250,300 L260,300 M270,290 L270,300 M270,300 L280,300 M290,290 L290,300 M280,300 L290,300 M300,290 L300,300 M310,290 L310,300 M320,290 L320,300 M310,300 L320,300 M340,300 L350,300 M360,290 L360,300 M350,300 L360,300 M370,290 L370,300 M370,300 L380,300 M380,300 L390,300 M400,290 L400,300 M410,290 L410,300 M400,300 L410,300 M410,300 L420,300 M430,300 L440,300 M450,290 L450,300 M460,300 L470,300 M490,290 L490,300 M500,290 L500,300 M490,300 L500,300 M0,300 L0,310 M0,310 L10,310 M30,300 L30,310 M40,300 L40,310 M30,310 L40,310 M40,310 L50,310 M60,300 L60,310 M50,310 L60,310 M80,300 L80,310 M70,310 L80,310 M90,300 L90,310 M80,310 L90,310 M90,310 L100,310 M110,300 L110,310 M110,310 L120,310 M120,310 L130,310 M140,300 L140,310 M140,310 L150,310 M170,300 L170,310 M160,310 L170,310 M180,300 L180,310 M170,310 L180,310 M200,300 L200,310 M200,310 L210,310 M230,300 L230,310 M220,310 L230,310 M240,300 L240,310 M230,310 L240,310 M260,300 L260,310 M250,310 L260,310 M270,300 L270,310 M260,310 L270,310 M280,310 L290,310 M300,300 L300,310 M310,300 L310,310 M300,310 L310,310 M330,300 L330,310 M350,300 L350,310 M340,310 L350,310 M350,310 L360,310 M360,310 L370,310 M390,300 L390,310 M380,310 L390,310 M390,310 L400,310 M410,300 L410,310 M400,310 L410,310 M420,310 L430,310 M440,300 L440,310 M430,310 L440,310 M450,300 L450,310 M440,310 L450,310 M450,310 L460,310 M470,300 L470,310 M460,310 L470,310 M480,300 L480,310 M470,310 L480,310 M480,310 L490,310 M500,300 L500,310 M0,310 L0,320 M0,320 L10,320 M20,310 L20,320 M40,320 L50,320 M60,310 L60,320 M50,320 L60,320 M70,310 L70,320 M70,320 L80,320 M80,320 L90,320 M100,320 L110,320 M120,310 L120,320 M110,320 L120,320 M120,320 L130,320 M150,310 L150,320 M160,310 L160,320 M170,320 L180,320 M190,310 L190,320 M180,320 L190,320 M200,310 L200,320 M190,320 L200,320 M200,320 L210,320 M230,310 L230,320 M220,320 L230,320 M270,310 L270,320 M270,320 L280,320 M290,310 L290,320 M280,320 L290,320 M300,310 L300,320 M300,320 L310,320 M320,310 L320,320 M310,320 L320,320 M330,310 L330,320 M340,310 L340,320 M340,320 L350,320 M360,320 L370,320 M370,320 L380,320 M410,310 L410,320 M400,320 L410,320 M410,320 L420,320 M430,310 L430,320 M420,320 L430,320 M450,320 L460,320 M470,320 L480,320 M500,310 L500,320 M0,320 L0,330 M20,320 L20,330 M30,320 L30,330 M40,320 L40,330 M30,330 L40,330 M40,330 L50,330 M70,320 L70,330 M70,330 L80,330 M130,320 L130,330 M140,320 L140,330 M150,320 L150,330 M140,330 L150,330 M160,320 L160,330 M190,320 L190,330 M180,330 L190,330 M190,330 L200,330 M200,330 L210,330 M220,320 L220,330 M220,330 L230,330 M240,320 L240,330 M230,330 L240,330 M250,320 L250,330 M260,320 L260,330 M250,330 L260,330 M270,320 L270,330 M300,330 L310,330 M320,320 L320,330 M330,320 L330,330 M340,320 L340,330 M360,330 L370,330 M380,320 L380,330 M370,330 L380,330 M390,320 L390,330 M400,330 L410,330 M410,330 L420,330 M430,320 L430,330 M440,320 L440,330 M450,320 L450,330 M440,330 L450,330 M460,330 L470,330 M480,320 L480,330 M470,330 L480,330 M490,320 L490,330 M500,320 L500,330 M0,330 L0,340 M10,330 L10,340 M20,330 L20,340 M30,330 L30,340 M20,340 L30,340 M30,340 L40,340 M60,330 L60,340 M50,340 L60,340 M70,330 L70,340 M90,330 L90,340 M100,330 L100,340 M90,340 L100,340 M110,330 L110,340 M100,340 L110,340 M120,330 L120,340 M110,340 L120,340 M130,330 L130,340 M120,340 L130,340 M130,340 L140,340 M150,330 L150,340 M140,340 L150,340 M160,330 L160,340 M170,330 L170,340 M160,340 L170,340 M180,340 L190,340 M200,330 L200,340 M190,340 L200,340 M210,340 L220,340 M230,330 L230,340 M220,340 L230,340 M230,340 L240,340 M240,340 L250,340 M260,330 L260,340 M250,340 L260,340 M270,330 L270,340 M260,340 L270,340 M280,330 L280,340 M290,330 L290,340 M310,330 L310,340 M320,330 L320,340 M330,330 L330,340 M320,340 L330,340 M340,330 L340,340 M330,340 L340,340 M350,330 L350,340 M340,340 L350,340 M360,330 L360,340 M390,330 L390,340 M400,330 L400,340 M410,340 L420,340 M430,330 L430,340 M420,340 L430,340 M430,340 L440,340 M450,330 L450,340 M440,340 L450,340 M450,340 L460,340 M470,330 L470,340 M470,340 L480,340 M490,330 L490,340 M480,340 L490,340 M500,330 L500,340 M0,340 L0,350 M10,340 L10,350 M10,350 L20,350 M30,340 L30,350 M20,350 L30,350 M50,340 L50,350 M50,350 L60,350 M70,340 L70,350 M60,350 L70,350 M80,340 L80,350 M70,350 L80,350 M100,340 L100,350 M100,350 L110,350 M160,340 L160,350 M160,350 L170,350 M180,340 L180,350 M170,350 L180,350 M190,350 L200,350 M210,350 L220,350 M220,350 L230,350 M270,340 L270,350 M260,350 L270,350 M280,340 L280,350 M270,350 L280,350 M290,340 L290,350 M300,340 L300,350 M310,340 L310,350 M300,350 L310,350 M320,340 L320,350 M310,350 L320,350 M330,350 L340,350 M340,350 L350,350 M360,340 L360,350 M350,350 L360,350 M370,340 L370,350 M360,350 L370,350 M380,340 L380,350 M390,340 L390,350 M380,350 L390,350 M400,340 L400,350 M410,340 L410,350 M410,350 L420,350 M430,350 L440,350 M440,350 L450,350 M470,340 L470,350 M470,350 L480,350 M500,340 L500,350 M490,350 L500,350 M0,350 L0,360 M10,350 L10,360 M40,350 L40,360 M80,350 L80,360 M90,350 L90,360 M110,350 L110,360 M120,350 L120,360 M130,350 L130,360 M140,350 L140,360 M130,360 L140,360 M150,350 L150,360 M170,350 L170,360 M170,360 L180,360 M190,350 L190,360 M180,360 L190,360 M190,360 L200,360 M210,350 L210,360 M200,360 L210,360 M210,360 L220,360 M240,350 L240,360 M250,350 L250,360 M250,360 L260,360 M260,360 L270,360 M280,350 L280,360 M290,350 L290,360 M280,360 L290,360 M300,350 L300,360 M300,360 L310,360 M330,360 L340,360 M340,360 L350,360 M370,350 L370,360 M360,360 L370,360 M390,350 L390,360 M400,350 L400,360 M400,360 L410,360 M420,350 L420,360 M420,360 L430,360 M450,350 L450,360 M460,350 L460,360 M450,360 L460,360 M470,350 L470,360 M480,360 L490,360 M500,350 L500,360 M0,360 L0,370 M10,360 L10,370 M20,360 L20,370 M30,360 L30,370 M20,370 L30,370 M40,360 L40,370 M30,370 L40,370 M50,360 L50,370 M40,370 L50,370 M60,360 L60,370 M70,360 L70,370 M80,360 L80,370 M90,360 L90,370 M100,360 L100,370 M110,360 L110,370 M100,370 L110,370 M120,360 L120,370 M130,360 L130,370 M120,370 L130,370 M150,360 L150,370 M160,360 L160,370 M170,360 L170,370 M180,370 L190,370 M200,370 L210,370 M210,370 L220,370 M230,360 L230,370 M240,360 L240,370 M230,370 L240,370 M250,360 L250,370 M240,370 L250,370 M250,370 L260,370 M260,370 L270,370 M280,360 L280,370 M290,370 L300,370 M310,360 L310,370 M300,370 L310,370 M320,360 L320,370 M310,370 L320,370 M330,360 L330,370 M330,370 L340,370 M340,370 L350,370 M350,370 L360,370 M370,360 L370,370 M360,370 L370,370 M380,360 L380,370 M390,360 L390,370 M390,370 L400,370 M410,360 L410,370 M410,370 L420,370 M430,360 L430,370 M420,370 L430,370 M440,360 L440,370 M440,370 L450,370 M460,360 L460,370 M470,360 L470,370 M490,360 L490,370 M500,360 L500,370 M0,370 L0,380 M10,370 L10,380 M20,380 L30,380 M40,370 L40,380 M30,380 L40,380 M60,370 L60,380 M50,380 L60,380 M70,370 L70,380 M80,370 L80,380 M90,370 L90,380 M80,380 L90,380 M100,370 L100,380 M100,380 L110,380 M120,370 L120,380 M110,380 L120,380 M140,370 L140,380 M150,370 L150,380 M140,380 L150,380 M160,370 L160,380 M150,380 L160,380 M170,370 L170,380 M180,370 L180,380 M200,370 L200,380 M190,380 L200,380 M200,380 L210,380 M240,380 L250,380 M260,370 L260,380 M250,380 L260,380 M280,370 L280,380 M270,380 L280,380 M320,370 L320,380 M310,380 L320,380 M330,380 L340,380 M360,370 L360,380 M380,370 L380,380 M390,370 L390,380 M390,380 L400,380 M400,380 L410,380 M420,370 L420,380 M410,380 L420,380 M420,380 L430,380 M430,380 L440,380 M450,370 L450,380 M440,380 L450,380 M460,370 L460,380 M450,380 L460,380 M470,370 L470,380 M460,380 L470,380 M480,370 L480,380 M470,380 L480,380 M490,370 L490,380 M500,370 L500,380 M490,380 L500,380 M0,380 L0,390 M10,380 L10,390 M40,380 L40,390 M30,390 L40,390 M50,380 L50,390 M40,390 L50,390 M50,390 L60,390 M70,380 L70,390 M90,380 L90,390 M80,390 L90,390 M90,390 L100,390 M100,390 L110,390 M120,380 L120,390 M110,390 L120,390 M130,380 L130,390 M120,390 L130,390 M140,380 L140,390 M130,390 L140,390 M150,390 L160,390 M170,380 L170,390 M180,380 L180,390 M190,380 L190,390 M200,390 L210,390 M220,380 L220,390 M230,380 L230,390 M240,380 L240,390 M230,390 L240,390 M260,390 L270,390 M280,380 L280,390 M290,380 L290,390 M280,390 L290,390 M300,380 L300,390 M310,380 L310,390 M300,390 L310,390 M310,390 L320,390 M320,390 L330,390 M340,380 L340,390 M330,390 L340,390 M350,380 L350,390 M340,390 L350,390 M360,380 L360,390 M350,390 L360,390 M370,380 L370,390 M360,390 L370,390 M380,380 L380,390 M370,390 L380,390 M400,380 L400,390 M400,390 L410,390 M420,390 L430,390 M430,390 L440,390 M500,380 L500,390 M490,390 L500,390 M0,390 L0,400 M10,390 L10,400 M20,390 L20,400 M10,400 L20,400 M30,400 L40,400 M50,390 L50,400 M40,400 L50,400 M50,400 L60,400 M70,390 L70,400 M60,400 L70,400 M80,390 L80,400 M80,400 L90,400 M90,400 L100,400 M110,400 L120,400 M130,400 L140,400 M140,400 L150,400 M160,390 L160,400 M150,400 L160,400 M170,390 L170,400 M180,390 L180,400 M170,400 L180,400 M190,390 L190,400 M200,390 L200,400 M200,400 L210,400 M220,390 L220,400 M230,390 L230,400 M230,400 L240,400 M250,390 L250,400 M240,400 L250,400 M250,400 L260,400 M270,390 L270,400 M260,400 L270,400 M280,390 L280,400 M320,390 L320,400 M320,400 L330,400 M330,400 L340,400 M350,400 L360,400 M360,400 L370,400 M370,400 L380,400 M390,390 L390,400 M400,390 L400,400 M400,400 L410,400 M440,390 L440,400 M450,390 L450,400 M440,400 L450,400 M460,390 L460,400 M450,400 L460,400 M470,390 L470,400 M480,390 L480,400 M480,400 L490,400 M500,390 L500,400 M0,400 L0,410 M10,400 L10,410 M10,410 L20,410 M30,400 L30,410 M20,410 L30,410 M50,410 L60,410 M60,410 L70,410 M70,410 L80,410 M90,400 L90,410 M90,410 L100,410 M110,400 L110,410 M110,410 L120,410 M130,400 L130,410 M140,410 L150,410 M150,410 L160,410 M180,400 L180,410 M170,410 L180,410 M190,400 L190,410 M180,410 L190,410 M190,410 L200,410 M210,400 L210,410 M200,410 L210,410 M220,400 L220,410 M210,410 L220,410 M230,400 L230,410 M220,410 L230,410 M240,410 L250,410 M280,400 L280,410 M270,410 L280,410 M290,400 L290,410 M300,400 L300,410 M290,410 L300,410 M310,400 L310,410 M320,400 L320,410 M380,400 L380,410 M390,400 L390,410 M400,400 L400,410 M420,400 L420,410 M430,400 L430,410 M420,410 L430,410 M440,400 L440,410 M450,410 L460,410 M470,400 L470,410 M480,400 L480,410 M500,400 L500,410 M490,410 L500,410 M0,410 L0,420 M10,410 L10,420 M20,420 L30,420 M40,410 L40,420 M30,420 L40,420 M40,420 L50,420 M80,410 L80,420 M90,410 L90,420 M80,420 L90,420 M90,420 L100,420 M110,410 L110,420 M130,410 L130,420 M120,420 L130,420 M130,420 L140,420 M150,410 L150,420 M150,420 L160,420 M170,420 L180,420 M180,420 L190,420 M190,420 L200,420 M200,420 L210,420 M230,410 L230,420 M240,410 L240,420 M230,420 L240,420 M260,410 L260,420 M270,410 L270,420 M260,420 L270,420 M290,410 L290,420 M280,420 L290,420 M290,420 L300,420 M310,410 L310,420 M320,410 L320,420 M310,420 L320,420 M330,410 L330,420 M320,420 L330,420 M340,410 L340,420 M330,420 L340,420 M350,410 L350,420 M340,420 L350,420 M360,410 L360,420 M370,410 L370,420 M360,420 L370,420 M380,410 L380,420 M390,410 L390,420 M380,420 L390,420 M400,410 L400,420 M410,410 L410,420 M420,410 L420,420 M410,420 L420,420 M420,420 L430,420 M440,410 L440,420 M440,420 L450,420 M460,410 L460,420 M450,420 L460,420 M470,410 L470,420 M460,420 L470,420 M480,410 L480,420 M470,420 L480,420 M500,410 L500,420 M0,420 L0,430 M10,420 L10,430 M10,430 L20,430 M30,430 L40,430 M50,420 L50,430 M40,430 L50,430 M60,420 L60,430 M70,420 L70,430 M80,420 L80,430 M90,430 L100,430 M110,420 L110,430 M120,420 L120,430 M130,430 L140,430 M140,430 L150,430 M160,420 L160,430 M170,420 L170,430 M170,430 L180,430 M190,430 L200,430 M200,430 L210,430 M220,420 L220,430 M220,430 L230,430 M240,420 L240,430 M230,430 L240,430 M250,420 L250,430 M270,420 L270,430 M260,430 L270,430 M300,420 L300,430 M300,430 L310,430 M320,430 L330,430 M340,420 L340,430 M360,420 L360,430 M350,430 L360,430 M360,430 L370,430 M380,420 L380,430 M370,430 L380,430 M400,420 L400,430 M390,430 L400,430 M420,420 L420,430 M430,430 L440,430 M460,420 L460,430 M450,430 L460,430 M470,430 L480,430 M490,420 L490,430 M480,430 L490,430 M500,420 L500,430 M490,430 L500,430 M0,430 L0,440 M10,430 L10,440 M30,430 L30,440 M40,440 L50,440 M60,430 L60,440 M70,430 L70,440 M60,440 L70,440 M80,430 L80,440 M70,440 L80,440 M90,430 L90,440 M80,440 L90,440 M90,440 L100,440 M110,430 L110,440 M100,440 L110,440 M120,430 L120,440 M120,440 L130,440 M140,430 L140,440 M130,440 L140,440 M160,430 L160,440 M150,440 L160,440 M160,440 L170,440 M180,430 L180,440 M170,440 L180,440 M200,430 L200,440 M210,440 L220,440 M230,430 L230,440 M230,440 L240,440 M250,430 L250,440 M260,430 L260,440 M280,430 L280,440 M270,440 L280,440 M290,430 L290,440 M300,430 L300,440 M290,440 L300,440 M330,430 L330,440 M340,430 L340,440 M350,430 L350,440 M350,440 L360,440 M370,440 L380,440 M390,430 L390,440 M410,430 L410,440 M420,430 L420,440 M430,430 L430,440 M430,440 L440,440 M460,430 L460,440 M450,440 L460,440 M460,440 L470,440 M470,440 L480,440 M480,440 L490,440 M500,430 L500,440 M0,440 L0,450 M10,440 L10,450 M20,440 L20,450 M10,450 L20,450 M30,440 L30,450 M50,440 L50,450 M40,450 L50,450 M60,440 L60,450 M50,450 L60,450 M60,450 L70,450 M90,450 L100,450 M100,450 L110,450 M130,440 L130,450 M160,440 L160,450 M190,440 L190,450 M200,440 L200,450 M210,440 L210,450 M200,450 L210,450 M220,450 L230,450 M240,440 L240,450 M250,440 L250,450 M260,440 L260,450 M270,440 L270,450 M270,450 L280,450 M300,440 L300,450 M290,450 L300,450 M310,440 L310,450 M320,440 L320,450 M310,450 L320,450 M330,440 L330,450 M340,440 L340,450 M330,450 L340,450 M360,440 L360,450 M370,440 L370,450 M360,450 L370,450 M370,450 L380,450 M390,440 L390,450 M380,450 L390,450 M400,440 L400,450 M410,440 L410,450 M400,450 L410,450 M420,440 L420,450 M410,450 L420,450 M420,450 L430,450 M440,440 L440,450 M440,450 L450,450 M450,450 L460,450 M480,440 L480,450 M470,450 L480,450 M500,440 L500,450 M0,450 L0,460 M0,460 L10,460 M20,450 L20,460 M30,450 L30,460 M60,450 L60,460 M80,450 L80,460 M90,460 L100,460 M110,450 L110,460 M120,450 L120,460 M130,450 L130,460 M140,450 L140,460 M130,460 L140,460 M150,450 L150,460 M160,450 L160,460 M150,460 L160,460 M170,450 L170,460 M160,460 L170,460 M180,450 L180,460 M190,450 L190,460 M180,460 L190,460 M200,450 L200,460 M230,450 L230,460 M240,450 L240,460 M250,450 L250,460 M260,450 L260,460 M250,460 L260,460 M270,450 L270,460 M260,460 L270,460 M290,450 L290,460 M280,460 L290,460 M290,460 L300,460 M320,450 L320,460 M340,450 L340,460 M350,450 L350,460 M340,460 L350,460 M350,460 L360,460 M380,450 L380,460 M390,460 L400,460 M400,460 L410,460 M410,460 L420,460 M430,450 L430,460 M440,450 L440,460 M450,460 L460,460 M470,450 L470,460 M460,460 L470,460 M490,450 L490,460 M480,460 L490,460 M500,450 L500,460 M0,460 L0,470 M20,460 L20,470 M30,460 L30,470 M40,460 L40,470 M50,460 L50,470 M60,460 L60,470 M70,460 L70,470 M60,470 L70,470 M80,460 L80,470 M70,470 L80,470 M90,460 L90,470 M80,470 L90,470 M110,460 L110,470 M120,460 L120,470 M110,470 L120,470 M130,460 L130,470 M120,470 L130,470 M150,460 L150,470 M150,470 L160,470 M160,470 L170,470 M190,460 L190,470 M200,460 L200,470 M190,470 L200,470 M210,460 L210,470 M220,460 L220,470 M230,460 L230,470 M220,470 L230,470 M240,460 L240,470 M230,470 L240,470 M250,470 L260,470 M270,460 L270,470 M260,470 L270,470 M280,460 L280,470 M280,470 L290,470 M290,470 L300,470 M310,460 L310,470 M320,460 L320,470 M330,460 L330,470 M330,470 L340,470 M350,460 L350,470 M370,460 L370,470 M360,470 L370,470 M380,460 L380,470 M370,470 L380,470 M400,460 L400,470 M390,470 L400,470 M430,460 L430,470 M440,460 L440,470 M450,460 L450,470 M440,470 L450,470 M450,470 L460,470 M480,460 L480,470 M470,470 L480,470 M500,460 L500,470 M0,470 L0,480 M10,470 L10,480 M20,470 L20,480 M10,480 L20,480 M30,470 L30,480 M20,480 L30,480 M40,470 L40,480 M30,480 L40,480 M50,470 L50,480 M70,470 L70,480 M60,480 L70,480 M80,480 L90,480 M100,470 L100,480 M100,480 L110,480 M120,470 L120,480 M110,480 L120,480 M140,470 L140,480 M130,480 L140,480 M150,480 L160,480 M170,470 L170,480 M160,480 L170,480 M180,470 L180,480 M200,470 L200,480 M210,470 L210,480 M200,480 L210,480 M220,470 L220,480 M240,480 L250,480 M250,480 L260,480 M270,470 L270,480 M270,480 L280,480 M300,470 L300,480 M290,480 L300,480 M310,470 L310,480 M300,480 L310,480 M320,470 L320,480 M340,470 L340,480 M350,470 L350,480 M350,480 L360,480 M360,480 L370,480 M380,470 L380,480 M370,480 L380,480 M400,470 L400,480 M390,480 L400,480 M410,470 L410,480 M420,470 L420,480 M410,480 L420,480 M430,470 L430,480 M420,480 L430,480 M440,480 L450,480 M460,470 L460,480 M480,470 L480,480 M470,480 L480,480 M490,470 L490,480 M480,480 L490,480 M500,470 L500,480 M490,480 L500,480 M0,480 L0,490 M20,480 L20,490 M50,480 L50,490 M40,490 L50,490 M60,480 L60,490 M60,490 L70,490 M80,480 L80,490 M70,490 L80,490 M90,490 L100,490 M120,480 L120,490 M140,480 L140,490 M130,490 L140,490 M150,480 L150,490 M160,490 L170,490 M180,480 L180,490 M190,480 L190,490 M180,490 L190,490 M200,480 L200,490 M200,490 L210,490 M220,480 L220,490 M230,480 L230,490 M240,480 L240,490 M230,490 L240,490 M260,490 L270,490 M280,480 L280,490 M290,480 L290,490 M300,490 L310,490 M320,480 L320,490 M310,490 L320,490 M330,480 L330,490 M320,490 L330,490 M340,480 L340,490 M360,490 L370,490 M380,480 L380,490 M390,480 L390,490 M380,490 L390,490 M390,490 L400,490 M410,490 L420,490 M430,480 L430,490 M440,480 L440,490 M430,490 L440,490 M440,490 L450,490 M460,480 L460,490 M450,490 L460,490 M460,490 L470,490 M470,490 L480,490 M500,480 L500,490 M0,490 L0,500 M10,490 L10,500 M0,500 L10,500 M20,490 L20,500 M10,500 L20,500 M30,490 L30,500 M20,500 L30,500 M30,500 L40,500 M50,490 L50,500 M40,500 L50,500 M50,500 L60,500 M60,500 L70,500 M80,490 L80,500 M70,500 L80,500 M90,490 L90,500 M80,500 L90,500 M90,500 L100,500 M110,490 L110,500 M100,500 L110,500 M120,490 L120,500 M110,500 L120,500 M120,500 L130,500 M140,490 L140,500 M130,500 L140,500 M150,490 L150,500 M140,500 L150,500 M150,500 L160,500 M170,490 L170,500 M160,500 L170,500 M180,490 L180,500 M170,500 L180,500 M180,500 L190,500 M200,490 L200,500 M190,500 L200,500 M200,500 L210,500 M220,490 L220,500 M210,500 L220,500 M230,490 L230,500 M220,500 L230,500 M230,500 L240,500 M250,490 L250,500 M240,500 L250,500 M250,500 L260,500 M270,490 L270,500 M260,500 L270,500 M280,490 L280,500 M270,500 L280,500 M290,490 L290,500 M280,500 L290,500 M290,500 L300,500 M300,500 L310,500 M310,500 L320,500 M330,490 L330,500 M320,500 L330,500 M340,490 L340,500 M330,500 L340,500 M350,490 L350,500 M340,500 L350,500 M350,500 L360,500 M370,490 L370,500 M360,500 L370,500 M370,500 L380,500 M380,500 L390,500 M400,490 L400,500 M390,500 L400,500 M410,490 L410,500 M400,500 L410,500 M410,500 L420,500 M420,500 L430,500 M430,500 L440,500 M440,500 L450,500 M460,490 L460,500 M450,500 L460,500 M460,500 L470,500 M470,500 L480,500 M490,490 L490,500 M480,500 L490,500 M500,490 L500,500 M490,500 L500,500" fill="none" stroke="black" stroke-width="1"/>
</svg>